<?xml version="1.0" encoding="UTF-8"?><svg id="Layer_1" xmlns="http://www.w3.org/2000/svg" viewBox="0 0 86 55"><defs><style>.cls-1,.cls-2{fill:#000523;}.cls-3{fill:#fac800;}.cls-3,.cls-2{fill-rule:evenodd;}</style></defs><g><path class="cls-2" d="M62.78,42.13l4.2-5.34c1.89-.02,3.72-.65,5.02-2.04,2.64-.05,5.16-.93,6.57-3.34,.42-.71,.74-1.62,.89-2.51,2.7-1.25,4.12-4.28,4.5-7.16,.19-1.41,.15-2.99-.27-4.35-.18-.58-.44-1.14-.8-1.61,.12-.26,.21-.54,.24-.82v-.06c.15-1.44-.72-3.38-1.39-4.63-.93-1.74-2.18-3.49-3.6-4.87-1.82-1.77-4.27-3.18-6.63-2.46-1.35-2.06-4.14-2.55-6.67-2.34-1.97,.16-4.05,.71-5.88,1.45-1.31,.53-3.22,1.47-4.03,2.67l-.02,.03v.02c-.17,.24-.28,.51-.35,.79-.58,.13-1.14,.39-1.64,.72-1.2,.78-2.24,1.97-2.99,3.18-1.55,2.46-2.39,5.7-1.11,8.38-.46,.78-.79,1.69-.92,2.5-.45,2.76,.92,5.05,2.92,6.77,.13,2.2,1.46,4.08,3.27,5.32l-.18,6.65c-.92,3.7-2.55,5.6,2.04,7.21,4.68,1.64,5.3,.83,6.82-4.15h0Zm2.47-5.49l-3.91,4.97-2.55-.94,2.13-6.07c1.2,1.06,2.77,1.75,4.33,2.04Zm-9.89,2.77l2.07,.76,2.14-6.11c-1.38,.06-2.79-.25-4.05-.83l-.16,6.18Z"/><path class="cls-1" d="M53.6,54.47c-.05,0-.11,0-.16-.03-.24-.09-.37-.36-.28-.6l1.91-5.31c.09-.24,.36-.37,.6-.28,.24,.09,.37,.36,.28,.6l-1.91,5.31c-.07,.19-.25,.31-.44,.31Z"/><path class="cls-1" d="M51.91,51.73c-.05,0-.11,0-.16-.03-.24-.09-.37-.36-.28-.6l1.91-5.31c.09-.24,.36-.37,.6-.28,.24,.09,.37,.36,.28,.6l-1.91,5.31c-.07,.19-.25,.31-.44,.31Z"/><path class="cls-1" d="M56.66,53.28c-.05,0-.11,0-.16-.03-.24-.09-.37-.36-.28-.6l1.91-5.31c.09-.24,.36-.37,.6-.28,.24,.09,.37,.36,.28,.6l-1.91,5.31c-.07,.19-.25,.31-.44,.31Z"/><path class="cls-3" d="M78.03,27.8c5.34-1.4,5.63-11.4,2.6-11.78,.9-.42,1.01-1.28,1.01-1.28,.16-1.6-1.91-5.7-4.54-8.27-2.03-1.98-4.39-3.06-6.34-1.4-.44-2.52-2.95-3.21-5.77-2.98-3.67,.3-7.88,2.13-8.78,3.46,0,0-.46,.73-.04,1.63-2.58-1.65-8.75,6.24-5.53,10.72,0,0-3.82,4.25,1.72,8.47-.34,4.1,5.01,7.09,8.57,5.91,1.99,3.18,8.01,4.3,10.38,.93,6.96,.29,6.74-5.42,6.74-5.42"/><path class="cls-1" d="M71.38,34.55c-.32,0-.63-.19-.76-.51h0s-.54-1.29-1.59-1.7c-.53-.21-1.1-.16-1.76,.14-.41,.19-.9,0-1.08-.4-.19-.41,0-.9,.4-1.08,1.07-.49,2.1-.55,3.05-.17,1.7,.68,2.46,2.53,2.49,2.61,.17,.42-.04,.9-.45,1.06-.1,.04-.2,.06-.31,.06Zm-10.32-.54c-.05,0-.11,0-.17-.02-.19-.04-.36-.14-.47-.28-.14,0-.28-.03-.41-.1-.4-.21-.55-.71-.34-1.11h0s1.57-3.03,.57-5.85c-.6-1.68-2.01-3-4.19-3.91-.42-.18-.61-.66-.44-1.07s.65-.61,1.07-.44c2.63,1.1,4.34,2.75,5.1,4.88,.34,.96,.45,1.92,.43,2.82,.55-.68,1.23-1.34,2.09-1.85,1.95-1.16,4.32-1.33,7.04-.5,.43,.13,.68,.59,.54,1.02-.13,.43-.59,.68-1.02,.54-2.27-.69-4.19-.57-5.73,.34-2.58,1.54-3.28,4.82-3.29,4.85-.08,.39-.42,.65-.8,.65Zm17.69-4.88s-.09,0-.13-.01c-.19-.03-4.68-.78-6.67-4.11-.23-.39-.11-.89,.28-1.12,.39-.23,.89-.11,1.12,.28,1.61,2.68,5.49,3.33,5.53,3.33,.45,.07,.75,.49,.68,.94-.07,.4-.41,.69-.81,.69Zm-22.22-.34c-.31,0-.6-.17-.74-.46-.32-.66-.73-1.06-1.27-1.23-1.07-.35-2.29,.29-2.3,.3-.4,.22-.89,.07-1.11-.33-.22-.4-.07-.89,.33-1.11,.08-.04,1.84-.98,3.58-.42,.98,.32,1.73,1.02,2.24,2.08,.2,.41,.03,.9-.38,1.09-.11,.06-.24,.08-.35,.08Zm18.95-5.46c-.41,0-.76-.3-.81-.71-.23-1.74-.03-3.21,.58-4.4-.02-.04-.03-.08-.04-.12-.06-.18-.59-1.69-3.15-1.09-.44,.1-.88-.17-.98-.61-.1-.44,.17-.88,.61-.98,2.55-.59,3.99,.36,4.67,1.35,2.09-1.94,5.25-1.76,5.38-1.75,.45,.03,.79,.42,.76,.87-.03,.45-.43,.8-.87,.76h0s-2.81-.15-4.35,1.51c-.9,.96-1.23,2.39-.99,4.26,.06,.45-.26,.86-.71,.92-.04,0-.07,0-.11,0Zm-7.53-2.23c-4.62,0-6.65-3.25-6.75-3.4-.24-.39-.11-.89,.27-1.12,.38-.23,.89-.11,1.12,.27,.09,.14,2.14,3.35,7.02,2.46,.45-.08,.87,.22,.95,.66,.08,.45-.21,.87-.66,.95-.7,.13-1.35,.18-1.96,.18Zm-13.18-1.01c-2.81,0-5.24-1.42-5.37-1.49-.39-.23-.52-.73-.29-1.12,.23-.39,.73-.52,1.12-.29,.03,.02,3.45,1.99,6.38,.97,.42-.15,.89,.08,1.04,.5,.15,.43-.08,.89-.5,1.04-.8,.28-1.61,.39-2.39,.39Zm1.06-3.92c-.22,0-.44-.09-.6-.26-.31-.33-.29-.85,.04-1.16,1.37-1.28,2.03-2.59,1.96-3.91-.13-2.26-2.37-3.92-2.39-3.94-.36-.27-.44-.78-.18-1.14,.27-.36,.78-.45,1.14-.18,.11,.08,2.74,2.02,3.04,4.93,1.15-.38,2.94-.25,4.58,1.91,.27,.36,.2,.87-.16,1.15-.36,.27-.87,.2-1.15-.16-1.66-2.19-3.06-1.22-3.12-1.18-.09,.07-.2,.11-.3,.13-.32,1.25-1.09,2.45-2.32,3.59-.16,.15-.36,.22-.56,.22Zm14.4-5.18c-2.5,0-3.92-1.74-4.37-2.9-.17-.42,.04-.9,.46-1.06,.42-.16,.89,.04,1.06,.46,.12,.29,1.22,2.71,4.53,1.54,.42-.15,.89,.07,1.04,.5,.15,.43-.07,.89-.5,1.04-.82,.29-1.56,.41-2.23,.41Z"/></g><g><path d="M9.71,23.9c-.69,0-1.31,.11-1.87,.34-.58,.22-1.1,.56-1.55,1.02-.44,.43-.78,.94-1,1.51-.23,.59-.34,1.21-.34,1.85,0,.21,.01,.43,.04,.64-.56,0-1.07,.12-1.53,.36-.46,.24-.82,.58-1.09,1.02-.08,.13-.14,.26-.19,.38-.05,.13-.1,.27-.13,.42-.03,.16-.06,.33-.08,.52-.01,.14-.02,.37-.02,.67v4.07h3.21v-2.58c0-.6,.04-.99,.12-1.18,.09-.32,.45-.48,1.07-.49h.57c.29,.21,.61,.38,.96,.51,.56,.24,1.18,.36,1.86,.36s1.29-.12,1.87-.35c.34-.13,.65-.3,.94-.5,1.04-.65,1.68-1.72,1.92-3.21,.02-.21,.03-.43,.03-.65,0-1.36-.45-2.48-1.35-3.36-.92-.9-2.06-1.36-3.41-1.36Zm1.09,5.94c-.28,.31-.64,.46-1.09,.46s-.81-.16-1.09-.46c-.28-.32-.42-.73-.42-1.23s.14-.93,.42-1.24c.28-.31,.64-.47,1.09-.47s.81,.16,1.09,.47,.42,.73,.42,1.24-.14,.91-.42,1.23Z"/><path d="M18.27,21.47c.44,0,.81-.16,1.12-.46,.31-.31,.46-.68,.46-1.12s-.15-.81-.46-1.12c-.31-.31-.68-.46-1.12-.46s-.8,.15-1.11,.46c-.31,.31-.46,.68-.46,1.12s.15,.81,.46,1.12c.3,.31,.67,.46,1.11,.46Z"/><path d="M26.72,21.84c.43,0,.8-.16,1.12-.46,.3-.31,.45-.68,.45-1.12s-.15-.81-.45-1.12c-.31-.31-.68-.46-1.12-.46s-.81,.15-1.11,.46c-.31,.31-.47,.68-.47,1.12s.16,.81,.47,1.12c.3,.31,.67,.46,1.11,.46Z"/><path d="M42.59,26.76c-.22-.56-.56-1.07-1.01-1.51-.45-.45-.97-.79-1.55-1.02-.56-.22-1.19-.34-1.88-.34-1.35,0-2.49,.45-3.41,1.36-.9,.88-1.35,2-1.35,3.36,0,.22,.01,.44,.04,.65h-2.89c.94-2.08,1.3-3.41,1.08-3.99-.22-.58-.55-1.1-1-1.54-.43-.45-.93-.79-1.5-1.02-.54-.23-1.16-.34-1.86-.34h-.9c-.69,0-1.31,.11-1.86,.34-.57,.22-1.07,.56-1.5,1.02-.45,.44-.79,.96-1,1.54-.22,.58,.14,1.92,1.08,3.99h-3.23v-5.78h-3.2l.02,8.98c-.11,.82-.64,1.32-1.58,1.51l1.36,2.34c2.14-.64,3.25-1.93,3.32-3.85h15.58c.28,.21,.59,.37,.93,.5,.58,.24,1.2,.35,1.87,.35s1.3-.12,1.87-.36c.59-.24,1.1-.57,1.54-1,.45-.45,.79-.96,1.03-1.52,.23-.58,.34-1.19,.34-1.84,0-.68-.11-1.3-.33-1.85Zm-15.02,2.49h-1.51c-.98-1.75-1.31-2.79-.98-3.12,.32-.32,.75-.48,1.29-.48h.9c.53,0,.96,.16,1.29,.48,.32,.33,0,1.37-.98,3.12Zm11.67,.58c-.27,.31-.64,.46-1.09,.46s-.81-.16-1.09-.46c-.28-.31-.42-.72-.42-1.23s.14-.93,.42-1.24c.28-.31,.64-.47,1.09-.47s.82,.16,1.09,.47c.27,.31,.41,.72,.41,1.24s-.14,.93-.41,1.23Z"/></g></svg>