<?xml version="1.0" encoding="UTF-8"?><svg id="Layer_1" xmlns="http://www.w3.org/2000/svg" viewBox="0 0 64 64"><path d="M31.98,34.13h.04c9.42-.01,17.07-7.69,17.05-17.12C49.05,7.62,41.4-.01,32,0,22.6-.01,14.95,7.62,14.93,17.01c-.02,9.43,7.63,17.11,17.05,17.12Z"/><path d="M61.87,57.18c.01,4.09-2.72,6.82-6.81,6.82H8.94c-4.09,0-6.82-2.73-6.81-6.82,.01-2.71-.16-5.43,.39-8.11,1.64-7.96,6.15-13.67,13.49-17.16,.26-.13,.48-.22,.76,.06,3.19,3.21,6.95,5.21,11.25,6.02,.18,.04,.36,.09,.54,.11,.71,.15,1.45,.25,2.2,.29,.02,0,.04,.01,.05,.01,.38,.02,.77,.03,1.15,.03h.04c.38,0,.77-.01,1.15-.03,.01,0,.03-.01,.05-.01,.75-.04,1.48-.14,2.2-.29,.18-.02,.36-.06,.54-.11,4.3-.81,8.06-2.81,11.25-6.02,.28-.29,.5-.19,.76-.06,7.34,3.49,11.85,9.21,13.49,17.16,.55,2.68,.38,5.4,.39,8.11Z"/></svg>